#!OML:ASF F:\VICON\USERDATA\INSTALL\Justin_Nancy\Justin_Nancy.ASF
:FULLY-SPECIFIED
:DEGREES
284
root 0.760139 17.4559 5.95131 0.953127 -1.7522 0.472824
lowerback -0.0701609 -1.01183 -3.5839
upperback -2.07798 -1.35672 1.99318
thorax -1.96692 -0.597753 4.0867
lowerneck -16.0698 -3.64634 -9.95653
upperneck 22.9933 -4.08928 6.43712
head 10.3527 -2.01691 3.40401
rclavicle -2.21645e-014 -9.54166e-015
rhumerus -34.4168 -17.3063 -76.5638
rradius 27.6847
rwrist 9.70268
rhand -17.3413 12.2776
rfingers 7.12502
rthumb 8.90602 -17.5145
lclavicle -2.21645e-014 -9.54166e-015
lhumerus -28.6177 11.6031 82.3532
lradius 26.0741
lwrist -7.41712
lhand -16.5313 27.4433
lfingers 7.12502
lthumb 9.68761 57.2005
rfemur -8.80458 5.56095 23.4887
rtibia 30.1305
rfoot -13.827 -11.9971
rtoes -0.723039
lfemur -9.43685 -4.26836 -22.1584
ltibia 30.7328
lfoot -16.5519 6.01943
ltoes 0.880419
285
root 0.748824 17.4532 5.98175 0.953041 -1.73206 0.545079
lowerback 0.0745622 -1.0268 -3.61435
upperback -2.18252 -1.38262 1.96054
thorax -2.15385 -0.604245 4.07523
lowerneck -16.0118 -3.74613 -10.0248
upperneck 22.84 -4.23155 6.51196
head 10.3031 -2.07913 3.41987
rclavicle 1.14798e-014 -9.14409e-015
rhumerus -34.2428 -17.2204 -76.5955
rradius 27.5833
rwrist 9.75876
rhand -17.196 12.0007
rfingers 7.12502
rthumb 9.04624 -17.7853
lclavicle 1.14798e-014 -9.14409e-015
lhumerus -28.9129 11.9133 82.3931
lradius 25.271
lwrist -8.57337
lhand -17.2793 26.9331
lfingers 7.12502
lthumb 8.9658 56.7226
rfemur -8.64091 5.66354 23.4811
rtibia 30.0967
rfoot -14.0024 -12.1038
rtoes 0.350694
lfemur -9.24705 -4.33013 -22.2261
ltibia 30.6419
lfoot -16.652 6.15745
ltoes -0.289689
286
root 0.737192 17.4524 6.01161 0.907143 -1.75094 0.466702
lowerback 0.160127 -1.00931 -3.47558
upperback -2.20246 -1.36066 1.92431
thorax -2.22821 -0.59416 3.96105
lowerneck -16.1582 -3.81595 -10.0078
upperneck 22.8417 -4.36444 6.68183
head 10.3474 -2.11674 3.45885
rclavicle 1.49089e-015 2.38542e-015
rhumerus -34.0857 -17.3335 -76.6792
rradius 27.6473
rwrist 9.77349
rhand -16.9424 12.1225
rfingers 7.12502
rthumb 9.29087 -17.6527
lclavicle 1.49089e-015 2.38542e-015
lhumerus -29.1299 12.152 82.3951
lradius 24.7487
lwrist -9.21731
lhand -17.4074 26.1919
lfingers 7.12502
lthumb 8.8422 55.9867
rfemur -8.39029 5.81638 23.6447
rtibia 30.0287
rfoot -14.3898 -12.059
rtoes 2.69576
lfemur -9.02286 -4.32299 -22.123
ltibia 30.5968
lfoot -16.7376 6.22781
ltoes -0.628653
287
root 0.728939 17.4539 6.04509 0.955681 -1.71903 0.56787
lowerback -0.102778 -1.00985 -3.51523
upperback -2.15797 -1.3548 1.86236
thorax -2.03548 -0.596221 3.91263
lowerneck -16.2764 -3.86576 -9.98788
upperneck 22.802 -4.46907 6.84503
head 10.3685 -2.1417 3.49835
rclavicle 2.37548e-014 -1.98785e-014
rhumerus -33.8919 -17.3041 -76.7851
rradius 27.8341
rwrist 9.48978
rhand -16.7777 12.3566
rfingers 7.12502
rthumb 9.4498 -17.4115
lclavicle 2.37548e-014 -1.98785e-014
lhumerus -29.2557 12.609 82.3784
lradius 24.1673
lwrist -10.074
lhand -17.2233 26.4835
lfingers 7.12502
lthumb 9.01985 56.2706
rfemur -8.22058 5.86954 23.5668
rtibia 29.9292
rfoot -14.5584 -12.1125
rtoes 2.89848
lfemur -8.95276 -4.31883 -22.224
ltibia 30.6141
lfoot -16.9108 6.16414
ltoes 0.678778
288
root 0.716733 17.4556 6.06285 1.09861 -1.70234 0.540361
lowerback -0.21723 -1.00205 -3.53332
upperback -2.21924 -1.341 1.88571
thorax -2.03477 -0.587742 3.94535
lowerneck -16.3398 -3.88807 -9.99675
upperneck 22.7396 -4.51703 6.95365
head 10.3653 -2.15016 3.53086
rclavicle 2.77305e-014 -7.95139e-015
rhumerus -33.7368 -17.2073 -76.8083
rradius 27.8963
rwrist 9.388
rhand -16.8329 12.4898
rfingers 7.12502
rthumb 9.39654 -17.2807
lclavicle 2.77305e-014 -7.95139e-015
lhumerus -29.3433 13.2222 82.3328
lradius 23.326
lwrist -11.0116
lhand -17.2663 26.6756
lfingers 7.12502
lthumb 8.97838 56.4645
rfemur -8.24858 6.17167 23.6781
rtibia 29.7943
rfoot -14.1638 -12.5663
rtoes 0.940856
lfemur -9.11231 -4.42555 -22.149
ltibia 30.6754
lfoot -16.994 6.21685
ltoes 1.45385
